<?xml version="1.0" encoding="utf-8"?>
<!-- Generator: Adobe Illustrator 24.0.0, SVG Export Plug-In . SVG Version: 6.00 Build 0)  -->
<svg version="1.1" id="图层_1" xmlns="http://www.w3.org/2000/svg" xmlns:xlink="http://www.w3.org/1999/xlink" x="0px" y="0px"
	 viewBox="0 0 40 40" style="enable-background:new 0 0 40 40;" xml:space="preserve">
<style type="text/css">
	.st0{fill-rule:evenodd;clip-rule:evenodd;fill:#FFFFFF;fill-opacity:0;}
	.st1{fill-rule:evenodd;clip-rule:evenodd;fill:#6467F0;}
</style>
<g>
	<path class="st0" d="M0,40h39.9V0H0V40z"/>
	<path class="st1" d="M35.9,17.7c-1.1,1.9-2.9,3.3-5.2,3.9c-0.1,0-0.1,0.1-0.2,0.1c-0.3,0.1-0.7,0.2-1,0.2c-1.5,0-2.4-1-2-2.3
		c0.4-0.9,1.2-1.7,2.3-2.1c1.7-0.6,2.9-2.1,2.9-3.7c0-2.2-2.2-4-4.8-4c-2.7,0-4.8,1.8-4.8,4l0.1,12.3c0,3-1.7,5.6-4.3,7.1
		c-1.4,0.8-3.1,1.3-4.8,1.3c-5.1,0-9.2-3.7-9.2-8.3c0-1.4,0.4-2.8,1.1-4c1.1-1.9,3-3.3,5.2-3.9c0.4-0.1,0.8-0.2,1.2-0.2
		c1.5,0,2.4,1,2,2.3c-0.3,0.9-1.2,1.6-2.1,2.1c-0.1,0.1-0.2,0.1-0.4,0.1c-1.7,0.6-2.7,2-2.7,3.6c0,2.2,2.2,4,4.8,4
		c2.7,0,4.8-1.8,4.8-4l-0.1-12.3c0-3,1.7-5.6,4.3-7.1c1.4-0.8,3.1-1.3,4.8-1.3c5.1,0,9.2,3.7,9.2,8.3C37,15.2,36.6,16.6,35.9,17.7"
		/>
</g>
</svg>
