<?xml version="1.0" encoding="utf-8"?>
<!-- Generator: Adobe Illustrator 24.0.0, SVG Export Plug-In . SVG Version: 6.00 Build 0)  -->
<svg version="1.1" id="图层_1" xmlns="http://www.w3.org/2000/svg" xmlns:xlink="http://www.w3.org/1999/xlink" x="0px" y="0px"
	 viewBox="0 0 40 40" style="enable-background:new 0 0 40 40;" xml:space="preserve">
<style type="text/css">
	.st0{fill:#FF6146;}
</style>
<g>
	<path class="st0" d="M9.7,38.3c-0.9,0-1.8,0-2.7,0c-1.2,0-2.1-0.8-2-2.2c0.3-2.1,0.3-4.4,0.4-6.6c0.2-3.3,0.4-6.6,0.6-9.9
		c0.1-1.8,0.2-3.7,0.4-5.4c0.1-1.3,0.7-1.8,2-1.8c1.1,0,2.2,0,3.3,0c0.6,0,0.8-0.2,0.8-0.8c0-0.9,0-1.9,0-2.8
		c0.1-2.7,2.5-5.1,5.2-5.1S23,6.1,23,8.8c0,1,0,1.9,0,2.9c0,0.5,0.2,0.7,0.7,0.7c1.1,0,2.2,0,3.3,0c1.4,0,2.1,0.6,2.1,2.1
		c0.1,1.8,0.2,3.6,0.4,5.3c0.1,0.8-0.3,1.1-1,1.3c-5.5,1.2-10.1,3.9-13.1,8.8c-1.5,2.4-2.1,5-2.2,7.8c0,0.7-0.3,0.9-0.9,0.9
		C11.5,38.3,10.6,38.3,9.7,38.3z M17.8,12.3c0.9,0,1.9,0,2.8,0c0.5,0,0.7-0.2,0.7-0.7c0-0.9,0-1.8,0-2.6c-0.1-2-1.6-3.5-3.4-3.5
		S14.5,7,14.4,8.7c-0.1,1,0,2.1,0,3c0,0.4,0.2,0.6,0.6,0.6C16,12.3,16.9,12.3,17.8,12.3z"/>
	<path class="st0" d="M29.9,24.1c0.2,1.8,0.3,3.5,0.4,5.2c0.2,2.3,0.3,4.7,0.4,7.1c0.1,1.3-0.5,2-1.8,2c-4.6,0-9.3,0-13.9,0
		c-0.7,0-0.7-0.4-0.6-0.9c1-4.6,3.7-7.9,7.4-10.3c2.2-1.4,4.6-2.3,7.2-2.9C29.3,24.2,29.5,24.2,29.9,24.1z"/>
	<path class="st0" d="M39.6,19.2c-0.4,0.4-0.6,0.6-1,0.8c-1.5,0.5-2.3,1.6-2.6,3.2c-0.1,0.5-0.2,1.1-0.9,1.1s-0.8-0.5-0.9-1.1
		c-0.3-1.4-1-2.5-2.4-3c-0.4-0.2-0.6-0.6-0.9-0.9c0.3-0.3,0.5-0.7,0.9-0.8c1.4-0.6,2.2-1.6,2.4-3.1c0.1-0.5,0.2-1,0.8-1.1
		c0.6-0.1,0.8,0.4,0.9,1c0.3,1.6,1.1,2.8,2.7,3.3C39,18.6,39.2,18.9,39.6,19.2z"/>
</g>
</svg>
